<svg id="Layer_1" data-name="Layer 1" xmlns="http://www.w3.org/2000/svg" viewBox="0 0 213.25 137.58"><defs><style>.cls-1{fill:#231f20;}.cls-2{fill:#f4794c;}.cls-3{fill:#71c6b0;}</style></defs><path class="cls-1" d="M23.79,28l-1.55,1.66v3.67H18.13V18.64h4.11v6.11l5.69-6.11h4.58l-6,6.51,6.32,8.19H28Z"/><path class="cls-1" d="M44.86,28.66H36.58a2.64,2.64,0,0,0,2.8,1.82,3.65,3.65,0,0,0,2.62-1l2.1,2.18a6.15,6.15,0,0,1-4.85,1.85c-4,0-6.68-2.5-6.68-5.9s2.67-5.86,6.26-5.86c3.36,0,6.09,2.14,6.09,5.9C44.92,28,44.88,28.34,44.86,28.66Zm-8.34-2.1h4.66a2.37,2.37,0,0,0-4.66,0Z"/><path class="cls-1" d="M58.55,22,53.64,33.8c-1.2,2.94-2.88,3.8-5.13,3.8a5.53,5.53,0,0,1-3.29-1l1.38-2.79a2.72,2.72,0,0,0,1.77.67,1.54,1.54,0,0,0,1.55-1L45.05,22h4.09l2.79,7L54.75,22Z"/><path class="cls-1" d="M82.36,70.14V62.92h1.33v7.16c0,3,1.4,4.36,3.85,4.36s3.87-1.37,3.87-4.36V62.92h1.3v7.22c0,3.62-1.94,5.49-5.17,5.49S82.36,73.76,82.36,70.14Z"/><path class="cls-1" d="M95.51,74,96,73a6.15,6.15,0,0,0,4.16,1.53c2.35,0,3.38-1,3.38-2.23,0-3.46-7.76-1.33-7.76-6,0-1.86,1.44-3.46,4.65-3.46a7.09,7.09,0,0,1,3.9,1.11L103.92,65a6.51,6.51,0,0,0-3.45-1c-2.31,0-3.33,1-3.33,2.29,0,3.46,7.76,1.37,7.76,6,0,1.85-1.48,3.44-4.7,3.44A6.88,6.88,0,0,1,95.51,74Z"/><path class="cls-1" d="M115.7,72.15h-7l-1.51,3.37h-1.39l5.77-12.6h1.31l5.76,12.6h-1.4Zm-.49-1.08-3-6.77-3,6.77Z"/><rect class="cls-2" x="18.13" y="58.18" width="44.33" height="23.54"/><rect class="cls-3" x="18.13" y="95.63" width="44.33" height="23.54"/><path class="cls-1" d="M83.2,111.44l.52-1A6.21,6.21,0,0,0,87.88,112c2.36,0,3.39-1,3.39-2.24,0-3.45-7.76-1.33-7.76-6,0-1.86,1.44-3.46,4.64-3.46a7,7,0,0,1,3.91,1.12l-.45,1.06a6.5,6.5,0,0,0-3.46-1c-2.3,0-3.33,1-3.33,2.28,0,3.46,7.76,1.37,7.76,6,0,1.86-1.47,3.44-4.7,3.44A6.85,6.85,0,0,1,83.2,111.44Z"/><path class="cls-1" d="M94.25,108.24a4.82,4.82,0,1,1,4.83,4.82A4.67,4.67,0,0,1,94.25,108.24Zm8.34,0a3.52,3.52,0,1,0-3.51,3.69A3.45,3.45,0,0,0,102.59,108.24Z"/><path class="cls-1" d="M115,103.5V113H113.8v-1.73a3.74,3.74,0,0,1-3.4,1.82c-2.41,0-4-1.35-4-4.07V103.5h1.28v5.37c0,2,1,3,2.85,3,2,0,3.22-1.28,3.22-3.44v-5Z"/><path class="cls-1" d="M123.6,112.4a3.05,3.05,0,0,1-2,.66,2.51,2.51,0,0,1-2.78-2.75v-5.73h-1.69V103.5h1.69v-2.07h1.28v2.07H123v1.08H120.1v5.66a1.52,1.52,0,0,0,1.64,1.72,2.15,2.15,0,0,0,1.41-.48Z"/><path class="cls-1" d="M134.63,107.48V113h-1.28v-5.36c0-2-1-3-2.84-3a3.11,3.11,0,0,0-3.32,3.42v5h-1.27V99.61h1.27v5.55a4,4,0,0,1,3.55-1.73C133.05,103.43,134.63,104.76,134.63,107.48Z"/><path class="cls-1" d="M147,107.05l-2.57,2.61V113h-1.33v-12.6h1.33V108l7.4-7.62h1.53l-5.46,5.71,5.84,6.89h-1.59Z"/><path class="cls-1" d="M154.23,108.24a4.82,4.82,0,1,1,4.82,4.82A4.66,4.66,0,0,1,154.23,108.24Zm8.34,0a3.52,3.52,0,1,0-3.52,3.69A3.45,3.45,0,0,0,162.57,108.24Z"/><path class="cls-1" d="M171.24,103.43v1.24l-.3,0c-2,0-3.19,1.26-3.19,3.5V113h-1.28V103.5h1.22v1.86A3.58,3.58,0,0,1,171.24,103.43Z"/><path class="cls-1" d="M181.7,108.63h-7.92a3.5,3.5,0,0,0,3.72,3.3,3.75,3.75,0,0,0,2.9-1.24l.72.82a5,5,0,0,1-8.62-3.27,4.56,4.56,0,0,1,4.63-4.81,4.51,4.51,0,0,1,4.59,4.81C181.72,108.35,181.7,108.49,181.7,108.63Zm-7.92-.95h6.71a3.36,3.36,0,0,0-6.71,0Z"/><path class="cls-1" d="M191.2,107.1V113H190V111.5a3.56,3.56,0,0,1-3.26,1.56c-2.14,0-3.46-1.11-3.46-2.75,0-1.46.94-2.68,3.66-2.68h3v-.58c0-1.62-.91-2.5-2.68-2.5a4.86,4.86,0,0,0-3.15,1.11l-.58-1a6,6,0,0,1,3.86-1.28C189.82,103.43,191.2,104.65,191.2,107.1Zm-1.28,3v-1.55h-3c-1.83,0-2.43.72-2.43,1.69s.89,1.78,2.4,1.78A3,3,0,0,0,189.92,110.13Z"/></svg>