<svg id="Layer_1" data-name="Layer 1" xmlns="http://www.w3.org/2000/svg" viewBox="0 0 240.31 131.89"><defs><style>.cls-1{fill:#1e396b;}.cls-2{fill:none;stroke:#1e396b;stroke-miterlimit:10;stroke-width:4px;}</style></defs><path class="cls-1" d="M32.7,4.2,26.35,23.8H20.41L16.66,11.87,12.74,23.8H6.8L.45,4.2H6.16l3.95,12.52L14.25,4.2h5.1L23.3,16.83,27.41,4.2Z"/><path class="cls-1" d="M33.43,14c0-5.88,4.62-10.19,10.89-10.19S55.22,8.12,55.22,14,50.6,24.19,44.32,24.19,33.43,19.88,33.43,14Zm16.19,0A5.3,5.3,0,1,0,39,14a5.3,5.3,0,1,0,10.59,0Z"/><path class="cls-1" d="M66.7,18.59h-3V23.8H58.13V4.2h9c5.35,0,8.71,2.77,8.71,7.25A6.5,6.5,0,0,1,72,17.64l4.23,6.16H70.25Zm0-10H63.67v5.74h3.08c2.3,0,3.45-1.07,3.45-2.86S69.05,8.57,66.75,8.57Z"/><path class="cls-1" d="M78.85,4.2h5.54V19.4h9.35v4.4H78.85Z"/><path class="cls-1" d="M95.93,4.2h9.27c6.49,0,10.94,3.78,10.94,9.8s-4.45,9.8-10.94,9.8H95.93Zm9,15.18c3.33,0,5.57-2,5.57-5.38S108.3,8.62,105,8.62h-3.5V19.38Z"/><path class="cls-1" d="M20.61,32.2V51.8H15.06V44.16H7.5V51.8H2V32.2H7.5v7.36h7.56V32.2Z"/><path class="cls-1" d="M37.66,48H29.37L27.83,51.8H22.18l8.65-19.6h5.46L45,51.8H39.2ZM36,43.9l-2.52-6.27L31,43.9Z"/><path class="cls-1" d="M64.2,39.45c0,4.45-3.36,7.23-8.7,7.23H52.08V51.8H46.54V32.2h9C60.84,32.2,64.2,35,64.2,39.45Zm-5.6,0c0-1.82-1.14-2.88-3.44-2.88H52.08v5.74h3.08C57.46,42.31,58.6,41.24,58.6,39.45Z"/><path class="cls-1" d="M84.56,39.45c0,4.45-3.36,7.23-8.71,7.23H72.44V51.8H66.89V32.2h9C81.2,32.2,84.56,35,84.56,39.45Zm-5.6,0c0-1.82-1.15-2.88-3.44-2.88H72.44v5.74h3.08C77.81,42.31,79,41.24,79,39.45Z"/><path class="cls-1" d="M87.25,32.2h5.54V51.8H87.25Z"/><path class="cls-1" d="M115.39,32.2V51.8h-4.57l-8.65-10.44V51.8H96.74V32.2h4.56L110,42.64V32.2Z"/><path class="cls-1" d="M135,47.52V51.8H119.31V32.2h15.37v4.28H124.8v3.31h8.7v4.14h-8.7v3.59Z"/><path class="cls-1" d="M136.75,50,138.57,46A12.35,12.35,0,0,0,145,47.88c2.3,0,3.19-.64,3.19-1.6,0-3.1-11.14-.84-11.14-8.12,0-3.5,2.85-6.35,8.68-6.35a14.66,14.66,0,0,1,7.11,1.71l-1.71,4.11a11.52,11.52,0,0,0-5.43-1.51c-2.32,0-3.16.78-3.16,1.76,0,3,11.11.76,11.11,8,0,3.42-2.85,6.33-8.68,6.33A15.51,15.51,0,0,1,136.75,50Z"/><path class="cls-1" d="M154.87,50,156.69,46a12.32,12.32,0,0,0,6.47,1.93c2.29,0,3.19-.64,3.19-1.6,0-3.1-11.15-.84-11.15-8.12,0-3.5,2.86-6.35,8.68-6.35A14.66,14.66,0,0,1,171,33.52l-1.7,4.11a11.58,11.58,0,0,0-5.43-1.51c-2.33,0-3.17.78-3.17,1.76,0,3,11.12.76,11.12,8,0,3.42-2.86,6.33-8.68,6.33A15.51,15.51,0,0,1,154.87,50Z"/><path class="cls-1" d="M10.53,74.59h-3V79.8H2V60.2h9c5.35,0,8.71,2.77,8.71,7.25a6.5,6.5,0,0,1-3.84,6.19L20,79.8H14.08Zm.05-10H7.5v5.74h3.08c2.3,0,3.45-1.07,3.45-2.86S12.88,64.57,10.58,64.57Z"/><path class="cls-1" d="M38.42,75.52V79.8H22.68V60.2H38.05v4.28H28.17v3.31h8.71v4.14H28.17v3.59Z"/><path class="cls-1" d="M59.16,67.45c0,4.45-3.36,7.23-8.7,7.23H47V79.8H41.5V60.2h9C55.8,60.2,59.16,63,59.16,67.45Zm-5.6,0c0-1.82-1.14-2.88-3.44-2.88H47v5.74h3.08C52.42,70.31,53.56,69.24,53.56,67.45Z"/><path class="cls-1" d="M61.12,70c0-5.88,4.62-10.19,10.9-10.19S82.91,64.12,82.91,70,78.29,80.19,72,80.19,61.12,75.88,61.12,70Zm16.19,0A5.3,5.3,0,1,0,72,75.6,5.25,5.25,0,0,0,77.31,70Z"/><path class="cls-1" d="M94.39,74.59h-3V79.8H85.82V60.2h9c5.35,0,8.71,2.77,8.71,7.25a6.5,6.5,0,0,1-3.84,6.19l4.23,6.16H97.94Zm0-10H91.36v5.74h3.08c2.3,0,3.45-1.07,3.45-2.86S96.74,64.57,94.44,64.57Z"/><path class="cls-1" d="M110.43,64.6h-6V60.2H122v4.4h-6V79.8h-5.55Z"/><path class="cls-1" d="M144.84,78V79.8H131.09V78.37l8.15-8a10.4,10.4,0,0,0,2.09-2.62,5,5,0,0,0,.55-2.22,3.28,3.28,0,0,0-1.19-2.7,5.27,5.27,0,0,0-3.41-1,6.71,6.71,0,0,0-5.34,2.18l-1.43-1.23a7.61,7.61,0,0,1,2.92-2.07,10.47,10.47,0,0,1,4-.73,7.31,7.31,0,0,1,4.75,1.42A4.72,4.72,0,0,1,144,65.32a6.81,6.81,0,0,1-.67,2.92,12.44,12.44,0,0,1-2.55,3.22L134.06,78Z"/><path class="cls-1" d="M151,78.76a7.81,7.81,0,0,1-2.77-3.45,14.6,14.6,0,0,1,0-10.62A7.81,7.81,0,0,1,151,61.24a7.37,7.37,0,0,1,8.09,0,8.06,8.06,0,0,1,2.79,3.45,14.6,14.6,0,0,1,0,10.62,8.06,8.06,0,0,1-2.79,3.45,7.37,7.37,0,0,1-8.09,0Zm7-1.59a6.14,6.14,0,0,0,2-2.77,13.63,13.63,0,0,0,0-8.8,6.14,6.14,0,0,0-2-2.77,5.24,5.24,0,0,0-6,0,6.29,6.29,0,0,0-2,2.77,13.8,13.8,0,0,0,0,8.8,6.29,6.29,0,0,0,2,2.77,5.24,5.24,0,0,0,6,0Z"/><path class="cls-1" d="M179.11,78V79.8H165.37V78.37l8.14-8a10.4,10.4,0,0,0,2.09-2.62,5,5,0,0,0,.55-2.22,3.28,3.28,0,0,0-1.19-2.7,5.27,5.27,0,0,0-3.41-1,6.73,6.73,0,0,0-5.34,2.18l-1.43-1.23a7.61,7.61,0,0,1,2.92-2.07,10.47,10.47,0,0,1,4-.73,7.31,7.31,0,0,1,4.75,1.42,4.69,4.69,0,0,1,1.75,3.87,6.81,6.81,0,0,1-.67,2.92A12.44,12.44,0,0,1,175,71.46L168.33,78Z"/><path class="cls-1" d="M185.29,78.76a7.81,7.81,0,0,1-2.77-3.45,14.6,14.6,0,0,1,0-10.62,7.81,7.81,0,0,1,2.77-3.45,7.37,7.37,0,0,1,8.09,0,8,8,0,0,1,2.79,3.45,14.6,14.6,0,0,1,0,10.62,8,8,0,0,1-2.79,3.45,7.37,7.37,0,0,1-8.09,0Zm7.05-1.59a6.14,6.14,0,0,0,2-2.77,13.63,13.63,0,0,0,0-8.8,6.14,6.14,0,0,0-2-2.77,5.24,5.24,0,0,0-6,0,6.29,6.29,0,0,0-2,2.77,13.8,13.8,0,0,0,0,8.8,6.29,6.29,0,0,0,2,2.77,5.24,5.24,0,0,0,6,0Z"/><line class="cls-2" x1="1.22" y1="90.24" x2="216.76" y2="90.24"/><path class="cls-1" d="M7,109.54l-1.49-2.15H3.92v2.15H2.13v-7.7H5.47a4.2,4.2,0,0,1,1.77.34,2.56,2.56,0,0,1,1.57,2.45,2.5,2.5,0,0,1-1.58,2.43L9,109.54Zm-.45-5.9a1.89,1.89,0,0,0-1.22-.35H3.92V106H5.37a1.83,1.83,0,0,0,1.22-.36,1.38,1.38,0,0,0,0-2Z"/><path class="cls-1" d="M14.7,107.89H11.12l-.68,1.65H8.61l3.43-7.7H13.8l3.45,7.7H15.38Zm-.57-1.35-1.22-3-1.22,3Z"/><path class="cls-1" d="M24.52,101.84v7.7H23.06l-3.84-4.68v4.68H17.46v-7.7h1.47l3.83,4.67v-4.67Z"/><path class="cls-1" d="M28.56,106.51l-1,1.08v2H25.75v-7.7h1.77v3.6l3.41-3.6h2l-3.19,3.43,3.38,4.27H31Z"/><path class="cls-1" d="M33.3,101.84h1.78v7.7H33.3Z"/><path class="cls-1" d="M43.37,101.84v7.7H41.91l-3.84-4.68v4.68H36.31v-7.7h1.47l3.83,4.67v-4.67Z"/><path class="cls-1" d="M49.81,105.57h1.63v3.12a4.65,4.65,0,0,1-1.46.73,5.57,5.57,0,0,1-1.66.25,4.46,4.46,0,0,1-2.15-.51,3.73,3.73,0,0,1-1.5-1.42,4.1,4.1,0,0,1,0-4.1,3.7,3.7,0,0,1,1.51-1.42,4.58,4.58,0,0,1,2.18-.51,4.7,4.7,0,0,1,1.83.34,3.76,3.76,0,0,1,1.39,1l-1.15,1a2.63,2.63,0,0,0-2-.86,2.81,2.81,0,0,0-1.31.3,2.32,2.32,0,0,0-.89.87,2.62,2.62,0,0,0-.32,1.29,2.52,2.52,0,0,0,.32,1.27,2.28,2.28,0,0,0,.89.88,2.62,2.62,0,0,0,1.29.31,2.91,2.91,0,0,0,1.39-.33Z"/><path class="cls-1" d="M56.57,109.16a3.73,3.73,0,0,1-1.5-1.42,4.16,4.16,0,0,1,0-4.1,3.73,3.73,0,0,1,1.5-1.42,4.79,4.79,0,0,1,4-.16,3.56,3.56,0,0,1,1.35,1l-1.14,1.06a2.47,2.47,0,0,0-1.94-.9,2.54,2.54,0,0,0-1.27.31,2.23,2.23,0,0,0-.88.87,2.58,2.58,0,0,0-.31,1.28,2.52,2.52,0,0,0,.31,1.27,2.19,2.19,0,0,0,.88.88,2.54,2.54,0,0,0,1.27.31,2.45,2.45,0,0,0,1.94-.91l1.14,1.06a3.64,3.64,0,0,1-1.36,1,4.6,4.6,0,0,1-1.81.35A4.41,4.41,0,0,1,56.57,109.16Z"/><path class="cls-1" d="M63.88,109.15a3.9,3.9,0,0,1-1.51-1.42,3.94,3.94,0,0,1-.54-2,3.83,3.83,0,0,1,2.05-3.47,4.83,4.83,0,0,1,4.32,0,3.92,3.92,0,0,1,0,6.93,4.75,4.75,0,0,1-4.32,0Zm3.4-1.31a2.27,2.27,0,0,0,.86-.88,2.52,2.52,0,0,0,.31-1.27,2.58,2.58,0,0,0-.31-1.28,2.32,2.32,0,0,0-.86-.87,2.62,2.62,0,0,0-2.47,0,2.25,2.25,0,0,0-.86.87,2.59,2.59,0,0,0-.32,1.28A2.52,2.52,0,0,0,64,107a2.21,2.21,0,0,0,.86.88,2.62,2.62,0,0,0,2.47,0Z"/><path class="cls-1" d="M71.86,108.76a3.49,3.49,0,0,1-.92-2.61v-4.31h1.78v4.24c0,1.38.57,2.07,1.72,2.07a1.58,1.58,0,0,0,1.27-.5,2.28,2.28,0,0,0,.44-1.57v-4.24h1.76v4.31a3.49,3.49,0,0,1-.92,2.61,4.07,4.07,0,0,1-5.13,0Z"/><path class="cls-1" d="M86.14,101.84v7.7H84.68l-3.84-4.68v4.68H79.08v-7.7h1.47l3.83,4.67v-4.67Z"/><path class="cls-1" d="M89,103.29H86.5v-1.45h6.71v1.45H90.75v6.25H89Z"/><path class="cls-1" d="M98.48,109.54,97,107.39H95.36v2.15H93.58v-7.7h3.33a4.28,4.28,0,0,1,1.78.34,2.71,2.71,0,0,1,1.16,1,2.67,2.67,0,0,1,.4,1.48,2.5,2.5,0,0,1-1.58,2.43l1.73,2.48Zm-.45-5.9a1.89,1.89,0,0,0-1.22-.35H95.36V106h1.45a1.83,1.83,0,0,0,1.22-.36,1.38,1.38,0,0,0,0-2Z"/><path class="cls-1" d="M101.07,101.84h1.78v7.7h-1.78Z"/><path class="cls-1" d="M110,108.11v1.43h-6v-7.7h5.82v1.43h-4.05v1.67h3.58v1.39h-3.58v1.78Z"/><path class="cls-1" d="M111.63,109.42a4.16,4.16,0,0,1-1.37-.64l.61-1.34A4.26,4.26,0,0,0,112,108a4.36,4.36,0,0,0,1.37.22,2.19,2.19,0,0,0,1.12-.22.68.68,0,0,0,.36-.6.57.57,0,0,0-.21-.46,1.59,1.59,0,0,0-.55-.29,7.13,7.13,0,0,0-.91-.24,13.28,13.28,0,0,1-1.44-.42,2.36,2.36,0,0,1-1-.67,1.81,1.81,0,0,1-.4-1.24,2.15,2.15,0,0,1,.36-1.21,2.46,2.46,0,0,1,1.09-.86,4.37,4.37,0,0,1,1.79-.32,6.3,6.3,0,0,1,1.44.17,4.29,4.29,0,0,1,1.23.51l-.55,1.35a4.31,4.31,0,0,0-2.13-.6,2,2,0,0,0-1.1.24.73.73,0,0,0-.36.64.64.64,0,0,0,.41.59,7.13,7.13,0,0,0,1.26.37,12.05,12.05,0,0,1,1.44.42,2.3,2.3,0,0,1,1,.66,1.76,1.76,0,0,1,.4,1.22,2.15,2.15,0,0,1-.36,1.21,2.52,2.52,0,0,1-1.11.86,4.55,4.55,0,0,1-1.79.32A6.16,6.16,0,0,1,111.63,109.42Z"/><path class="cls-1" d="M126.5,106.23a1.94,1.94,0,0,1,.37,1.21,1.77,1.77,0,0,1-.78,1.55,4,4,0,0,1-2.3.55h-4v-7.7h3.76a3.66,3.66,0,0,1,2.16.54,1.7,1.7,0,0,1,.76,1.46,1.87,1.87,0,0,1-.27,1,1.84,1.84,0,0,1-.76.7A2,2,0,0,1,126.5,106.23Zm-4.92-3V105h1.77a1.8,1.8,0,0,0,1-.23.79.79,0,0,0,.34-.69.74.74,0,0,0-.34-.67,1.8,1.8,0,0,0-1-.23Zm3.14,4.79a.81.81,0,0,0,.36-.72c0-.64-.47-1-1.42-1h-2.08v1.91h2.08A2,2,0,0,0,124.72,108Z"/><path class="cls-1" d="M131.16,106.81v2.73h-1.78v-2.75l-3-5h1.89l2.06,3.42,2.06-3.42h1.74Z"/><path class="cls-1" d="M145.15,110.36a2.39,2.39,0,0,1-.9.71,2.85,2.85,0,0,1-1.17.24,3.24,3.24,0,0,1-1.56-.37,6.56,6.56,0,0,1-1.58-1.3,4.28,4.28,0,0,1-1.86-.67,3.79,3.79,0,0,1-1.28-1.39,4,4,0,0,1-.46-1.89,3.88,3.88,0,0,1,2-3.47,4.6,4.6,0,0,1,2.17-.51,4.49,4.49,0,0,1,2.15.51,3.92,3.92,0,0,1,1.51,1.43A4.06,4.06,0,0,1,144,108a3.88,3.88,0,0,1-2,1.41,1.85,1.85,0,0,0,.53.41,1.18,1.18,0,0,0,.56.13,1.68,1.68,0,0,0,1.25-.57Zm-6.69-3.4a2.27,2.27,0,0,0,.86.88,2.62,2.62,0,0,0,2.47,0,2.21,2.21,0,0,0,.86-.88,2.52,2.52,0,0,0,.32-1.27,2.59,2.59,0,0,0-.32-1.28,2.25,2.25,0,0,0-.86-.87,2.62,2.62,0,0,0-2.47,0,2.32,2.32,0,0,0-.86.87,2.58,2.58,0,0,0-.31,1.28A2.52,2.52,0,0,0,138.46,107Z"/><path class="cls-1" d="M146.37,108.76a3.53,3.53,0,0,1-.92-2.61v-4.31h1.78v4.24c0,1.38.58,2.07,1.72,2.07a1.6,1.6,0,0,0,1.28-.5,2.34,2.34,0,0,0,.44-1.57v-4.24h1.76v4.31a3.53,3.53,0,0,1-.92,2.61,4.08,4.08,0,0,1-5.14,0Z"/><path class="cls-1" d="M158.5,107.89h-3.58l-.68,1.65h-1.83l3.44-7.7h1.76l3.44,7.7h-1.87Zm-.56-1.35-1.22-3-1.23,3Z"/><path class="cls-1" d="M161.26,101.84H163v6.25h3.86v1.45h-5.64Z"/><path class="cls-1" d="M167.31,101.84h1.78v7.7h-1.78Z"/><path class="cls-1" d="M171.92,103.29h-2.47v-1.45h6.71v1.45H173.7v6.25h-1.78Z"/><path class="cls-1" d="M180.08,106.81v2.73H178.3v-2.75l-3-5h1.89l2.06,3.42,2-3.42h1.75Z"/><path class="cls-1" d="M187.31,109.15a3.9,3.9,0,0,1-1.51-1.42,3.94,3.94,0,0,1-.54-2,3.83,3.83,0,0,1,2.05-3.47,4.83,4.83,0,0,1,4.32,0,3.92,3.92,0,0,1,0,6.93,4.75,4.75,0,0,1-4.32,0Zm3.4-1.31a2.27,2.27,0,0,0,.86-.88,2.52,2.52,0,0,0,.31-1.27,2.58,2.58,0,0,0-.31-1.28,2.32,2.32,0,0,0-.86-.87,2.62,2.62,0,0,0-2.47,0,2.25,2.25,0,0,0-.86.87,2.59,2.59,0,0,0-.32,1.28,2.52,2.52,0,0,0,.32,1.27,2.21,2.21,0,0,0,.86.88,2.62,2.62,0,0,0,2.47,0Z"/><path class="cls-1" d="M196.22,103.27v2h3.56v1.43h-3.56v2.81h-1.79v-7.7h5.82v1.43Z"/><path class="cls-1" d="M203.39,101.84h1.78v6.25H209v1.45h-5.64Z"/><path class="cls-1" d="M209.44,101.84h1.78v7.7h-1.78Z"/><path class="cls-1" d="M214.23,103.27v2h3.57v1.43h-3.57v2.81h-1.78v-7.7h5.82v1.43Z"/><path class="cls-1" d="M224.85,108.11v1.43h-6v-7.7h5.82v1.43h-4.05v1.67h3.57v1.39h-3.57v1.78Z"/></svg>