<svg id="Layer_1" data-name="Layer 1" xmlns="http://www.w3.org/2000/svg" viewBox="0 0 515.46 106.85"><defs><style>.cls-1{fill:#f4794c;}.cls-2{fill:#f2ae97;}.cls-3{fill:#ffdb9b;}.cls-4{fill:#b1ded2;}.cls-5{fill:#d8d8d8;}.cls-6{fill:#1d3a6c;}.cls-7{fill:#fff;}</style></defs><rect class="cls-1" x="8.48" y="62.83" width="64.77" height="13.07"/><rect class="cls-2" x="73.25" y="62.83" width="64.77" height="13.07"/><rect class="cls-3" x="138.02" y="62.83" width="64.77" height="13.07"/><rect class="cls-4" x="202.79" y="62.83" width="240.45" height="13.07"/><rect class="cls-5" x="443.24" y="62.83" width="64.77" height="13.07"/><rect class="cls-6" x="8.48" y="9.68" width="80.94" height="32.64"/><polyline class="cls-6" points="8.48 42.31 8.48 55.34 19.37 42.31"/><path class="cls-7" d="M20.35,23.13l-1.21-1.76H17.8v1.76H16.34v-6.3h2.72a3.46,3.46,0,0,1,1.46.28,2.13,2.13,0,0,1,.95.79,2.19,2.19,0,0,1,.33,1.21,2.06,2.06,0,0,1-1.3,2l1.42,2ZM20,18.3A1.53,1.53,0,0,0,19,18H17.8v2.19H19a1.47,1.47,0,0,0,1-.29,1.13,1.13,0,0,0,0-1.62Z"/><path class="cls-7" d="M26.62,21.78H23.69l-.56,1.35H21.64l2.81-6.3h1.44l2.81,6.3H27.17Zm-.46-1.11-1-2.41-1,2.41Z"/><path class="cls-7" d="M34.65,16.83v6.3H33.46L30.31,19.3v3.83H28.87v-6.3h1.21l3.13,3.82V16.83Z"/><path class="cls-7" d="M38,20.65l-.85.89v1.59H35.66v-6.3h1.45v2.94l2.79-2.94h1.62l-2.61,2.81,2.76,3.49H40Z"/><path class="cls-7" d="M41.83,16.83h1.46v6.3H41.83Z"/><path class="cls-7" d="M50.08,16.83v6.3h-1.2L45.74,19.3v3.83H44.3v-6.3h1.21l3.13,3.82V16.83Z"/><path class="cls-7" d="M55.34,19.88h1.34v2.56a4.14,4.14,0,0,1-1.19.59,4.59,4.59,0,0,1-1.36.21,3.7,3.7,0,0,1-1.77-.42,3.1,3.1,0,0,1-1.22-1.16A3.2,3.2,0,0,1,50.69,20a3.15,3.15,0,0,1,.45-1.68,3.06,3.06,0,0,1,1.23-1.16A4.08,4.08,0,0,1,55.66,17a3,3,0,0,1,1.13.81l-.93.86A2.19,2.19,0,0,0,54.23,18a2.31,2.31,0,0,0-1.07.25,1.78,1.78,0,0,0-.73.71A2.06,2.06,0,0,0,52.17,20a2,2,0,0,0,.26,1,1.78,1.78,0,0,0,.72.72,2.16,2.16,0,0,0,1.06.25,2.33,2.33,0,0,0,1.13-.27Z"/><path class="cls-7" d="M21.81,31.42a1.62,1.62,0,0,1,.31,1,1.45,1.45,0,0,1-.65,1.27,3.25,3.25,0,0,1-1.87.45H16.34v-6.3h3.08a3,3,0,0,1,1.76.44,1.37,1.37,0,0,1,.62,1.2A1.49,1.49,0,0,1,21,30.85,1.78,1.78,0,0,1,21.81,31.42Zm-4-2.49v1.48h1.44a1.4,1.4,0,0,0,.82-.19.69.69,0,0,0,0-1.11,1.49,1.49,0,0,0-.82-.18Zm2.57,3.91a.66.66,0,0,0,.29-.58c0-.53-.39-.79-1.16-.79h-1.7V33h1.7A1.61,1.61,0,0,0,20.36,32.84Z"/><path class="cls-7" d="M25.63,31.9v2.23H24.17V31.88l-2.44-4.05h1.55L25,30.63l1.68-2.8h1.43Z"/><path class="cls-7" d="M36,27.83v6.3H34.58V31.55H31.72v2.58H30.26v-6.3h1.46v2.48h2.86V27.83Z"/><path class="cls-7" d="M41.2,32.78H38.27l-.56,1.35H36.22L39,27.83h1.44l2.81,6.3H41.75Zm-.46-1.11-1-2.41-1,2.41Z"/><path class="cls-7" d="M47.64,28.11a2.1,2.1,0,0,1,.94.79,2.12,2.12,0,0,1,.34,1.21,2.14,2.14,0,0,1-1.28,2,3.66,3.66,0,0,1-1.46.27H44.91v1.74H43.45v-6.3h2.73A3.49,3.49,0,0,1,47.64,28.11Zm-.54,2.81a1.13,1.13,0,0,0,0-1.62,1.53,1.53,0,0,0-1-.28H44.91V31.2H46.1A1.53,1.53,0,0,0,47.1,30.92Z"/><path class="cls-7" d="M53.65,28.11a2.19,2.19,0,0,1,0,4,3.62,3.62,0,0,1-1.46.27H50.92v1.74H49.47v-6.3h2.72A3.46,3.46,0,0,1,53.65,28.11Zm-.54,2.81a1.13,1.13,0,0,0,0-1.62,1.53,1.53,0,0,0-1-.28H50.92V31.2h1.19A1.53,1.53,0,0,0,53.11,30.92Z"/><path class="cls-7" d="M55.48,27.83h1.46v6.3H55.48Z"/><path class="cls-7" d="M63.72,27.83v6.3h-1.2L59.38,30.3v3.83H57.94v-6.3h1.21l3.13,3.82V27.83Z"/><path class="cls-7" d="M69.61,33v1.17H64.73v-6.3h4.76V29H66.18v1.37H69.1V31.5H66.18V33Z"/><path class="cls-7" d="M70.91,34a3.34,3.34,0,0,1-1.12-.52l.49-1.1a3.26,3.26,0,0,0,1,.48,3.58,3.58,0,0,0,1.11.18,1.81,1.81,0,0,0,.92-.19.55.55,0,0,0,.3-.49A.46.46,0,0,0,73.4,32a1.37,1.37,0,0,0-.45-.24c-.18-.06-.43-.13-.74-.2A10.58,10.58,0,0,1,71,31.24a1.89,1.89,0,0,1-.79-.55,1.48,1.48,0,0,1-.33-1,1.72,1.72,0,0,1,.3-1,2,2,0,0,1,.9-.71,3.7,3.7,0,0,1,1.46-.26,5.21,5.21,0,0,1,1.18.14,3.69,3.69,0,0,1,1,.42l-.45,1.1a3.66,3.66,0,0,0-1.75-.49,1.68,1.68,0,0,0-.91.2.6.6,0,0,0-.29.52.5.5,0,0,0,.34.48,5,5,0,0,0,1,.31c.48.12.87.23,1.18.34a2.06,2.06,0,0,1,.79.54,1.45,1.45,0,0,1,.33,1,1.68,1.68,0,0,1-.31,1,2,2,0,0,1-.9.71,3.75,3.75,0,0,1-1.47.26A4.92,4.92,0,0,1,70.91,34Z"/><path class="cls-7" d="M76.16,34A3.53,3.53,0,0,1,75,33.51l.5-1.1a3.32,3.32,0,0,0,1,.48,3.64,3.64,0,0,0,1.12.18,1.83,1.83,0,0,0,.92-.19.56.56,0,0,0,.29-.49.48.48,0,0,0-.17-.37,1.37,1.37,0,0,0-.45-.24c-.19-.06-.43-.13-.75-.2a9.75,9.75,0,0,1-1.17-.34,1.89,1.89,0,0,1-.79-.55,1.48,1.48,0,0,1-.33-1,1.72,1.72,0,0,1,.3-1,1.9,1.9,0,0,1,.89-.71,3.74,3.74,0,0,1,1.46-.26,5.08,5.08,0,0,1,1.18.14,3.57,3.57,0,0,1,1,.42l-.45,1.1a3.59,3.59,0,0,0-1.74-.49,1.68,1.68,0,0,0-.91.2.6.6,0,0,0-.29.52.5.5,0,0,0,.34.48,4.61,4.61,0,0,0,1,.31c.48.12.87.23,1.18.34a2.11,2.11,0,0,1,.78.54,1.45,1.45,0,0,1,.33,1,1.75,1.75,0,0,1-.3,1,2,2,0,0,1-.9.71,3.83,3.83,0,0,1-1.47.26A5,5,0,0,1,76.16,34Z"/><path d="M10.76,82.68V89H9.59V83.66H8.26v-1Z"/><path d="M13.62,86h2.47V87H13.62Z"/><path d="M20.67,82.68V89H19.5V83.66H18.17v-1Z"/><path d="M21.44,85.83c0-2.07,1.13-3.24,2.63-3.24s2.64,1.17,2.64,3.24-1.14,3.24-2.64,3.24S21.44,87.9,21.44,85.83Zm4.09,0c0-1.52-.6-2.22-1.46-2.22s-1.45.7-1.45,2.22.59,2.23,1.45,2.23S25.53,87.35,25.53,85.83Z"/><path d="M75.83,82.68V89H74.66V83.66H73.32v-1Z"/><path d="M78.77,82.68V89H77.6V83.66H76.27v-1Z"/><path d="M81.63,86h2.48V87H81.63Z"/><path d="M91.07,88v1H86.43V88.2l2.5-2.38c.61-.58.72-.95.72-1.3,0-.58-.4-.91-1.17-.91a1.79,1.79,0,0,0-1.48.66l-.82-.63a2.92,2.92,0,0,1,2.4-1c1.37,0,2.25.69,2.25,1.81a2.52,2.52,0,0,1-1,2L88.1,88Z"/><path d="M91.23,85.83c0-2.07,1.14-3.24,2.63-3.24s2.64,1.17,2.64,3.24-1.14,3.24-2.64,3.24S91.23,87.9,91.23,85.83Zm4.09,0c0-1.52-.6-2.22-1.46-2.22s-1.45.7-1.45,2.22.6,2.23,1.45,2.23S95.32,87.35,95.32,85.83Z"/><path d="M143,88v1h-4.64V88.2l2.5-2.38c.61-.58.72-.95.72-1.3,0-.58-.4-.91-1.17-.91a1.79,1.79,0,0,0-1.48.66l-.82-.63a2.92,2.92,0,0,1,2.4-1c1.37,0,2.25.69,2.25,1.81a2.52,2.52,0,0,1-1.05,2L140,88Z"/><path d="M145.35,82.68V89h-1.17V83.66h-1.33v-1Z"/><path d="M148.21,86h2.47V87h-2.47Z"/><path d="M157.56,87.09c0,1.07-.8,2-2.49,2a4,4,0,0,1-2.37-.73l.5-.9a3,3,0,0,0,1.85.62c.84,0,1.33-.37,1.33-1s-.41-.93-1.37-.93h-.57v-.81l1.43-1.7H153v-1h4.29v.78l-1.53,1.82A1.8,1.8,0,0,1,157.56,87.09Z"/><path d="M157.84,85.83c0-2.07,1.13-3.24,2.63-3.24s2.63,1.17,2.63,3.24-1.13,3.24-2.63,3.24S157.84,87.9,157.84,85.83Zm4.09,0c0-1.52-.6-2.22-1.46-2.22s-1.45.7-1.45,2.22.59,2.23,1.45,2.23S161.93,87.35,161.93,85.83Z"/><path d="M207.66,87.09c0,1.07-.8,2-2.49,2a3.93,3.93,0,0,1-2.37-.73l.5-.9a3,3,0,0,0,1.85.62c.84,0,1.33-.37,1.33-1s-.41-.93-1.37-.93h-.57v-.81l1.43-1.7H203.1v-1h4.3v.78l-1.53,1.82A1.8,1.8,0,0,1,207.66,87.09Z"/><path d="M210.12,82.68V89H209V83.66h-1.34v-1Z"/><path d="M213,86h2.47V87H213Z"/><path d="M220,82.68V89h-1.17V83.66h-1.33v-1Z"/><path d="M225.38,87.05c0,1.11-.8,2-2.49,2a3.91,3.91,0,0,1-2.37-.73l.49-.9a3.05,3.05,0,0,0,1.86.62c.83,0,1.33-.37,1.33-1s-.39-1-1.69-1H221l.32-3.43H225v1H222.3l-.13,1.46h.6C224.63,85.12,225.38,85.93,225.38,87.05Z"/><path d="M230.6,87a2.1,2.1,0,0,1-2.31,2c-1.72,0-2.72-1.1-2.72-3.13s1.26-3.35,3.08-3.35a3.17,3.17,0,0,1,1.66.41l-.43.88a2.11,2.11,0,0,0-1.2-.31c-1.19,0-1.93.74-1.93,2.17h0a2.14,2.14,0,0,1,1.68-.66A2,2,0,0,1,230.6,87Zm-1.14,0c0-.65-.49-1.07-1.26-1.07a1.14,1.14,0,0,0-1.27,1.08c0,.6.46,1.07,1.3,1.07A1.1,1.1,0,0,0,229.46,87.08Z"/><path d="M449.68,82.68V89h-1l-3.48-4.26V89h-1.16v-6.3h1L448.52,87V82.68Z"/><path d="M450.38,86.58a2.56,2.56,0,1,1,2.56,2.47A2.42,2.42,0,0,1,450.38,86.58Zm4,0a1.43,1.43,0,1,0-1.43,1.5A1.39,1.39,0,0,0,454.37,86.58Z"/><path d="M462.8,82.3V89h-1.08v-.62a2,2,0,0,1-1.59.69,2.47,2.47,0,0,1,0-4.93,2,2,0,0,1,1.55.65V82.3Zm-1.11,4.28a1.43,1.43,0,1,0-1.43,1.5A1.4,1.4,0,0,0,461.69,86.58Z"/><path d="M467.81,86.17V89h-1.06V88.4a1.71,1.71,0,0,1-1.51.65c-1.1,0-1.79-.61-1.79-1.44s.54-1.44,2-1.44h1.24V86.1c0-.65-.4-1-1.2-1a2.37,2.37,0,0,0-1.46.48l-.44-.82a3.38,3.38,0,0,1,2-.6C467,84.12,467.81,84.78,467.81,86.17Zm-1.12,1.31v-.56h-1.16c-.77,0-1,.29-1,.64s.34.67.91.67A1.23,1.23,0,0,0,466.69,87.48Z"/><path d="M471.66,88.72a1.76,1.76,0,0,1-1.08.33,1.48,1.48,0,0,1-1.66-1.62V85.11h-.79v-.9h.79v-1.1h1.13v1.1h1.28v.9h-1.28V87.4c0,.47.23.72.66.72a1,1,0,0,0,.63-.2Z"/><path d="M476.12,86.17V89h-1.06V88.4a1.71,1.71,0,0,1-1.51.65c-1.1,0-1.79-.61-1.79-1.44s.54-1.44,2-1.44H475V86.1c0-.65-.4-1-1.2-1a2.37,2.37,0,0,0-1.46.48l-.44-.82a3.34,3.34,0,0,1,2-.6C475.32,84.12,476.12,84.78,476.12,86.17ZM475,87.48v-.56h-1.16c-.77,0-1,.29-1,.64s.35.67.92.67A1.23,1.23,0,0,0,475,87.48Z"/></svg>